<svg xmlns="http://www.w3.org/2000/svg" width="110.057" height="116.388" viewBox="0 0 110.057 116.388"><g transform="translate(-617.68 -195.16)"><path d="M884.249,289.649a30.111,30.111,0,0,1-19.347-7.042l3.056-3.636a25.371,25.371,0,1,0-2.105-1.983l-3.446,3.269a30.1,30.1,0,1,1,21.843,9.392Z" transform="translate(-197.725 -28.672)" fill="#227ecc"/><path d="M644.954,379.87A27.3,27.3,0,0,1,617.68,352.6h4.75a22.524,22.524,0,1,0,45.048,0c0-7.952-3.465-15.081-9.269-19.072l2.69-3.914c7.093,4.878,11.328,13.47,11.328,22.986A27.305,27.305,0,0,1,644.954,379.87Z" transform="translate(0 -112.421)" fill="#227ecc"/><path d="M706.629,219.532a28.267,28.267,0,0,0-8.1-1.87l-5.394-.283,3.852-3.783,13.948-13.686H679.13v-4.75h43.428l-18.857,18.5a30.743,30.743,0,0,1,4.72,1.471Z" transform="translate(-51.382 0)" fill="#227ecc"/><g transform="translate(673.38 213.806)"><path d="M1017.485,308.96l-1.873,3.383-2.753-1.737A9.472,9.472,0,0,1,1017.485,308.96Z" transform="translate(-1003.811 -308.96)" fill="#227ecc"/><path d="M970.628,331.526l-1.181-.8-9.777,16.493-2.04-.011a5.274,5.274,0,0,0,.847,1.8c0-.007,1.209-1.74,1.209-1.74l.75,1.129Z" transform="translate(-957.63 -327.163)" fill="#227ecc"/><path d="M980.5,358.974l1.345.034,9.333-15.493-.706-.965Z" transform="translate(-976.753 -337.046)" fill="#227ecc"/><path d="M1038.79,312.308c.013-.025.026-.047.034-.061l.083-.162c.095-.184.19-.367.283-.551.125-.239.248-.48.37-.719l.377-.731.3-.587c.048-.093.1-.188.143-.285l0-.007a4.146,4.146,0,0,0-1.154-.226l-2.281,4.36.652.944,1.527-1.909-.216.043a.478.478,0,0,1-.115.023C1038.736,312.432,1038.76,312.365,1038.79,312.308Z" transform="translate(-1023.954 -308.977)" fill="#227ecc"/><path d="M1046.516,319.024l-.706-1.27,1.982-3.161s.018-.206-.225-.147a16.605,16.605,0,0,1,1.667-2.253l-.37-.613s5.885.952,9.048,4.752c0,0,5.7,5.469,2.823,14.553-.039.108-10.755-17.561-10.755-17.561Z" transform="translate(-1031.362 -311.151)" fill="#227ecc"/><path d="M1136.9,429l2.165-.08-.844,2.259Z" transform="translate(-1107.527 -409.265)" fill="#227ecc"/><path d="M998.67,371.967l.931.008q1.143.01,2.286.018,1.44.012,2.879.023l2.712.021,1.786.015c.1,0,.3.034.356-.054a2.263,2.263,0,0,0,.3-.688,1.3,1.3,0,0,0-.074-.9,3.674,3.674,0,0,1-.338-1.288,1.38,1.38,0,0,1,.278-.965.561.561,0,0,0,.084-.123c.108-.269-.665-.608-.3-.885a.291.291,0,0,0-.01-.456c-.165-.165-.249-.269-.249-.269-.016-.02.549-.649.6-.709.1-.12.208-.239.316-.356a1.391,1.391,0,0,0,.287-.334c.12-.265-.2-.521-.387-.651a10.42,10.42,0,0,1-1.262-1.142,7.058,7.058,0,0,1-1.357-1.466,1.885,1.885,0,0,1-.223-.67,1.13,1.13,0,0,1,.023-.413c.016-.066.126-.4.211-.4a1.233,1.233,0,0,0-.083-1.532c-.01,0-.331-.372-.5-.5C1006.933,358.248,998.67,371.967,998.67,371.967Z" transform="translate(-991.945 -350.174)" fill="#227ecc"/><path d="M993.72,448.645s2.143-4.157,9.1-5.381a38.849,38.849,0,0,1,6.475-.482c4.33,0,9.207-.062,9.207-.062a17,17,0,0,1-11.358,9.017A14.8,14.8,0,0,1,993.72,448.645Z" transform="translate(-987.807 -420.804)" fill="#227ecc"/></g><path d="M644.954,379.87A27.3,27.3,0,0,1,617.68,352.6h4.75a22.524,22.524,0,1,0,45.048,0c0-7.952-3.465-15.081-9.269-19.072l2.69-3.914c7.093,4.878,11.328,13.47,11.328,22.986A27.305,27.305,0,0,1,644.954,379.87Z" transform="translate(0 -112.421)" fill="#227ecc"/><path d="M706.629,219.532a28.267,28.267,0,0,0-8.1-1.87l-5.394-.283,3.852-3.783,13.948-13.686H679.13v-4.75h43.428l-18.857,18.5a30.743,30.743,0,0,1,4.72,1.471Z" transform="translate(-51.382 0)" fill="#227ecc"/><g transform="translate(617.832 304.984)"><g transform="translate(15.941 0.28)"><path d="M717.283,873.348l-1.383-6.2h.744l.647,3.134c.162.772.308,1.545.4,2.141h.016c.089-.616.259-1.352.446-2.151l.728-3.126h.736l.663,3.144c.154.736.3,1.471.38,2.124h.016c.113-.68.267-1.37.438-2.141l.719-3.126h.719l-1.545,6.2h-.736l-.688-3.226c-.17-.792-.283-1.4-.356-2.022h-.016c-.1.616-.218,1.222-.421,2.022l-.777,3.226h-.736Z" transform="translate(-715.9 -867.15)" fill="#227ecc"/><path d="M758.48,874.709c0,1.829-.978,2.8-2.169,2.8-1.234,0-2.1-1.088-2.1-2.7,0-1.686.922-2.79,2.169-2.79C757.656,872.022,758.48,873.132,758.48,874.709Zm-3.626.087c0,1.135.541,2.151,1.491,2.151s1.5-1,1.5-2.207c0-1.057-.485-2.159-1.491-2.159S754.854,873.629,754.854,874.8Z" transform="translate(-747.933 -871.222)" fill="#227ecc"/><path d="M787.382,875.53c-.034-.741-.077-1.632-.069-2.294h-.021c-.159.623-.354,1.285-.59,2.017l-.826,2.577h-.457l-.755-2.53c-.221-.749-.41-1.434-.541-2.064h-.013c-.013.662-.049,1.553-.09,2.348l-.125,2.278h-.575l.326-5.312h.77l.8,2.569c.195.654.354,1.237.472,1.789h.021c.118-.536.283-1.119.492-1.789l.832-2.569h.77l.292,5.312h-.59Z" transform="translate(-772.273 -871.665)" fill="#227ecc"/><path d="M819.54,875.382h-1.817V877.3h2.025v.575H817.12V872.56h2.523v.575h-1.92v1.678h1.817Z" transform="translate(-800.535 -871.674)" fill="#227ecc"/><path d="M836.96,877.872V872.56h.659l1.5,2.687a15.5,15.5,0,0,1,.839,1.725l.013-.008c-.056-.709-.069-1.355-.069-2.182V872.56h.568v5.312h-.609l-1.483-2.7a17.712,17.712,0,0,1-.873-1.773l-.021.008c.034.67.049,1.307.049,2.191v2.269Z" transform="translate(-817.125 -871.674)" fill="#227ecc"/></g><g transform="translate(61.002 0.041)"><path d="M995.66,869.167c-.041-.863-.088-1.9-.08-2.676h-.025c-.185.726-.413,1.5-.688,2.353l-.962,3.007h-.534l-.881-2.951c-.259-.873-.477-1.673-.631-2.408h-.016c-.016.772-.057,1.81-.1,2.74l-.146,2.656h-.672l.38-6.2h.9l.931,3c.226.763.413,1.443.551,2.087h.025c.138-.626.331-1.306.573-2.087l.97-3h.9l.339,6.2H995.8Z" transform="translate(-990.92 -865.69)" fill="#227ecc"/><path d="M1029.15,873.922h-1.817v1.915h2.025v.575h-2.628V871.1h2.523v.575h-1.92v1.678h1.817Z" transform="translate(-1020.863 -870.214)" fill="#227ecc"/><path d="M1049.882,874.07c-.035-.741-.075-1.632-.069-2.294h-.021c-.159.623-.354,1.285-.59,2.017l-.826,2.577h-.457l-.755-2.53c-.221-.749-.41-1.434-.541-2.065h-.013c-.013.662-.049,1.552-.09,2.348l-.125,2.277h-.575l.326-5.312h.77l.8,2.569c.193.654.354,1.237.472,1.789h.021c.118-.536.284-1.119.491-1.789l.833-2.569h.77l.292,5.312H1050Z" transform="translate(-1036.825 -870.205)" fill="#227ecc"/><path d="M1082.2,873.249c0,1.828-.978,2.8-2.169,2.8-1.234,0-2.1-1.088-2.1-2.7,0-1.686.923-2.79,2.169-2.79C1081.374,870.562,1082.2,871.672,1082.2,873.249Zm-3.626.087c0,1.135.541,2.151,1.491,2.151s1.5-1,1.5-2.207c0-1.055-.485-2.16-1.491-2.16S1078.574,872.169,1078.574,873.336Z" transform="translate(-1063.673 -869.762)" fill="#227ecc"/><path d="M1107.79,870.97a5.587,5.587,0,0,1,1.158-.11,1.757,1.757,0,0,1,1.352.434,1.417,1.417,0,0,1,.367,1.009,1.382,1.382,0,0,1-.88,1.355v.023a1.317,1.317,0,0,1,.687,1.072,9.357,9.357,0,0,0,.361,1.458h-.624a7.627,7.627,0,0,1-.312-1.268c-.139-.732-.388-1.009-.935-1.032h-.569v2.3h-.6V870.97Zm.6,2.42h.618a.968.968,0,0,0,1.053-1.009c0-.685-.437-.985-1.075-.993a2.216,2.216,0,0,0-.6.062Z" transform="translate(-1088.641 -870.013)" fill="#227ecc"/><path d="M1127.926,876.412v-2.255l-1.476-3.057h.687l.659,1.466c.18.4.32.724.464,1.1h.013c.131-.347.292-.693.472-1.1l.672-1.466h.687l-1.566,3.049v2.261h-.61Z" transform="translate(-1104.244 -870.214)" fill="#227ecc"/></g><g transform="translate(92.324 0.043)"><path d="M1182.08,865.7h2.936v.672h-2.231v2.06h2.063v.662h-2.062v2.8h-.7v-6.2Z" transform="translate(-1182.08 -865.7)" fill="#227ecc"/><path d="M1203.02,881.673c0,1.411-.86,2.025-1.671,2.025-.908,0-1.609-.757-1.609-1.963,0-1.276.736-2.025,1.665-2.025C1202.368,879.71,1203.02,880.506,1203.02,881.673Zm-2.663.039c0,.836.423,1.467,1.019,1.467s1.019-.623,1.019-1.481c0-.646-.283-1.467-1-1.467S1200.358,880.986,1200.358,881.712Z" transform="translate(-1196.846 -877.415)" fill="#227ecc"/><path d="M1223.338,880.986c0-.449-.007-.836-.028-1.189h.534l.021.749h.028a1.038,1.038,0,0,1,.929-.836.627.627,0,0,1,.174.023v.654a.784.784,0,0,0-.208-.023c-.429,0-.736.37-.818.89a2.35,2.35,0,0,0-.028.323v2.033h-.6v-2.623Z" transform="translate(-1216.554 -877.415)" fill="#227ecc"/><path d="M1239.048,883.014c0,.395.007.741.028,1.04h-.541l-.034-.623h-.013a1.247,1.247,0,0,1-1.109.709c-.528,0-1.158-.331-1.158-1.671v-2.23h.61v2.112c0,.724.193,1.214.749,1.214a.9.9,0,0,0,.8-.631,1.136,1.136,0,0,0,.056-.354v-2.34h.609Z" transform="translate(-1227.349 -877.858)" fill="#227ecc"/><path d="M1258.538,880.829c0-.395-.007-.718-.028-1.032h.534l.028.615h.021a1.149,1.149,0,0,1,1.054-.7,1.01,1.01,0,0,1,.95.765h.013a1.527,1.527,0,0,1,.374-.5,1.056,1.056,0,0,1,.742-.269c.444,0,1.1.331,1.1,1.655v2.246h-.6v-2.16c0-.732-.236-1.175-.727-1.175a.813.813,0,0,0-.721.631,1.288,1.288,0,0,0-.049.347v2.356h-.6v-2.286c0-.606-.236-1.049-.7-1.049a.867.867,0,0,0-.755.693,1.1,1.1,0,0,0-.049.339v2.3h-.6Z" transform="translate(-1245.987 -877.414)" fill="#227ecc"/></g><g transform="translate(44.198 0.213)"><path d="M889.654,870.989l-.567,1.948h-.727l1.851-6.2h.849l1.86,6.2h-.752l-.582-1.948Zm1.788-.626-.534-1.783c-.121-.4-.2-.772-.283-1.131h-.016c-.08.369-.17.744-.275,1.122l-.534,1.792h1.643Z" transform="translate(-888.36 -866.74)" fill="#227ecc"/><path d="M916.32,877.452V872.14h.659l1.5,2.687a15.471,15.471,0,0,1,.839,1.725l.013-.008c-.056-.709-.069-1.355-.069-2.182V872.14h.569v5.312h-.61l-1.484-2.7a17.675,17.675,0,0,1-.873-1.773l-.021.008c.034.67.049,1.307.049,2.191v2.269Z" transform="translate(-911.739 -871.255)" fill="#227ecc"/><path d="M943.19,872.02a7.725,7.725,0,0,1,1.283-.11,2.475,2.475,0,0,1,1.892.662,2.628,2.628,0,0,1,.659,1.907,3.039,3.039,0,0,1-.672,2.065,2.672,2.672,0,0,1-2.066.765,8.621,8.621,0,0,1-1.1-.062Zm.6,4.7a3.4,3.4,0,0,0,.609.039c1.289,0,1.989-.819,1.989-2.255a1.782,1.782,0,0,0-1.892-2.048,3.059,3.059,0,0,0-.708.07v4.193Z" transform="translate(-934.206 -871.063)" fill="#227ecc"/></g><g transform="translate(0)"><path d="M620.268,866.12H618.61v-.68h4.036v.68h-1.666v5.515h-.711Z" transform="translate(-618.61 -865.44)" fill="#227ecc"/><path d="M642.783,870.83v2.222h2.259V870.83h.61v5.312h-.61v-2.49h-2.259v2.49h-.6V870.83Z" transform="translate(-638.318 -869.947)" fill="#227ecc"/><path d="M671.21,873.652h-1.817v1.915h2.025v.575H668.79V870.83h2.523v.575h-1.92v1.678h1.817Z" transform="translate(-660.568 -869.947)" fill="#227ecc"/></g></g><g transform="translate(618.455 264.142)"><path d="M1061.126,753.169h-5.856l.434-.475a.906.906,0,0,0,.283-.637l-.1-.582-.064-.528-.039-.457a4.4,4.4,0,0,1,.426-1.925q.521-.932,1.01-.931h.134a1.013,1.013,0,0,1,.142-.462,1.447,1.447,0,0,1,.418-.47,2.7,2.7,0,0,1,.521-.333l.244-.08.252-.036h.1l.1-.162a.415.415,0,0,1,.348-.162h.1l.008-.062v-.223a.594.594,0,0,0-.242-.354,1.182,1.182,0,0,0-.315-.089h-.185l-.071-.026a1.337,1.337,0,0,1,.418-.736l.213-.134a.572.572,0,0,1,.229-.044.138.138,0,0,1,.11.044l-.008-.062v-.333l.047-.2a1.775,1.775,0,0,1,.308-.439,2.581,2.581,0,0,0,1.042-1.4Zm-2.961-12.217a1.206,1.206,0,0,1-.264.754.8.8,0,0,1-.659.341.921.921,0,0,1-.631-.323,1.128,1.128,0,0,1-.277-.736,1.313,1.313,0,0,1,.331-.762.854.854,0,0,1,.577-.3.9.9,0,0,1,.687.351A.978.978,0,0,1,1058.165,740.952Zm.229,7.875-.244.08-.269.144a1.107,1.107,0,0,0-.513.968,2.108,2.108,0,0,0,.174.862l.213.287.142.054.157.026h1.578v-3.229h-.331a2.014,2.014,0,0,0-.592.144A.672.672,0,0,0,1058.395,748.827Zm1.934-7.839a1.209,1.209,0,0,1-.064.421,1.258,1.258,0,0,1-.19.341.815.815,0,0,1-.647.3.9.9,0,0,1-.664-.3,1.06,1.06,0,0,1-.275-.718,1.038,1.038,0,0,1,.3-.744.849.849,0,0,1,.6-.315,1.013,1.013,0,0,1,.872.6A1.118,1.118,0,0,1,1060.328,740.988Z" transform="translate(-984.347 -719.652)" fill="#227ecc"/><path d="M1098.139,725.972l-.143-.223a.323.323,0,0,0-.26-.146.355.355,0,0,0-.236.152.571.571,0,0,0-.135.341.53.53,0,0,0,.135.367.448.448,0,0,0,.316.134h.151l.118-.03.031-.059.056-.118v-.116l.157.087a.317.317,0,0,1,.157.236l-.025.08.19.026a.862.862,0,0,1,.269.349h-3.18a1.079,1.079,0,0,1,.364-.341l.252-.09c-.031-.029-.016-.1.043-.2a.289.289,0,0,1,.264-.157v.279l.126.054h.151l-.087-.2-.039-.213v-.185a1.356,1.356,0,0,1,.178-.718.765.765,0,0,1,.256-.269l.139-.062a.555.555,0,0,1,.193-.026h.157a.645.645,0,0,1,.4.267l.078.321.031.138A1.259,1.259,0,0,1,1098.139,725.972Zm-.492,3.169a3.323,3.323,0,0,1,.356.449,1.337,1.337,0,0,1,.1.251v.349l.095-.008a.739.739,0,0,1,.387.09,1.222,1.222,0,0,1,.339.537l.023.233-.174-.026a.6.6,0,0,0-.4.152.442.442,0,0,0-.182.377v9.128a.535.535,0,0,0,.151.323.458.458,0,0,0,.324.134.453.453,0,0,0,.221-.062,1.165,1.165,0,0,1-.284.78.6.6,0,0,1-.411.152l-.095-.008-.056-.01a.819.819,0,0,1-.039.323,1.206,1.206,0,0,1-.262.547l-.378.4a4.006,4.006,0,0,0-.552.852V728l.033.116.08.126.08.134.138.18Z" transform="translate(-1018.186 -707.102)" fill="#227ecc"/><path d="M1107.637,781.071v2.468a.292.292,0,0,0,.064.193.348.348,0,0,0,.209.1h.133l-.056.224a.405.405,0,0,1-.374.242.48.48,0,0,1-.19-.036,2.271,2.271,0,0,1-.678.862,1.936,1.936,0,0,1-1.27.395,1.967,1.967,0,0,1-1.231-.341,3.1,3.1,0,0,1-.6-.628.74.74,0,0,0-.529-.351c-.057,0-.162.075-.312.224a.648.648,0,0,1-.446.224.769.769,0,0,1-.442-.269.728.728,0,0,1,.016-.924.749.749,0,0,1,.593-.242,1.412,1.412,0,0,1,.9.367l.729.691a1.327,1.327,0,0,0,.878.377,1.048,1.048,0,0,0,.855-.385,1.226,1.226,0,0,0,.285-.844v-6.736a.29.29,0,0,0-.156-.3,1.3,1.3,0,0,0-.315-.093h-.247a.91.91,0,0,1,.434-.834l.157-.044.277-.044v-.162a1.1,1.1,0,0,1,.12-.506,2.466,2.466,0,0,1,.665-.659l.313-.431a2.373,2.373,0,0,1,.213-.315v5.912h1.121l-.016,1.866h-1.106Z" transform="translate(-1023.219 -747.554)" fill="#227ecc"/><path d="M1154.31,790.269h-.6a3.066,3.066,0,0,1-.751,1.479,2.293,2.293,0,0,1-1.743.718,2.39,2.39,0,0,1-1.617-.655,2,2,0,0,1-.742-1.543H1138.13V788.4h10.578a3.39,3.39,0,0,1,.154-.663,3.676,3.676,0,0,1,.524-.79,1.3,1.3,0,0,1,.7-.485l.039-.018.064-.036-.031-.206-.008-.188a2.744,2.744,0,0,1,.379-1.229l.395-.485.025.395.095.359.064.162.1.162.11.162.15.17.277.26.213.17.631.413a2.06,2.06,0,0,1,.616.664,3.435,3.435,0,0,1,.521,1.185h.583v1.866Zm-2.146-.942a1.266,1.266,0,0,0-.288-.759.852.852,0,0,0-.7-.382.934.934,0,0,0-.6.328,1.024,1.024,0,0,0-.336.759,1.318,1.318,0,0,0,.284.749.83.83,0,0,0,.686.4.872.872,0,0,0,.644-.336A1.1,1.1,0,0,0,1152.164,789.327Z" transform="translate(-1053.63 -756.752)" fill="#227ecc"/><path d="M1233.6,647.821V620.3a.6.6,0,0,0-.04-.224.431.431,0,0,0-.165-.242,1.2,1.2,0,0,0-.3-.108l-.4-.036v-.233c.154-.515.364-.772.626-.772s.387-.033.393-.1a1.771,1.771,0,0,1,.395-1.122l1.081-1.293v33.517h-5.848l-.016-1.866Z" transform="translate(-1129.879 -616.17)" fill="#227ecc"/><path d="M1276.472,618.584l.1-.018.141-.044.151.054a1.3,1.3,0,0,1,.339.537l.039.251-.182-.036a.872.872,0,0,0-.418.162.5.5,0,0,0-.19.395v30.142a.658.658,0,0,0,.023.188l.128.2a.469.469,0,0,0,.367.2.287.287,0,0,0,.167-.044,1.439,1.439,0,0,1-.283.772.592.592,0,0,1-.4.162l-.1-.008-.048-.008a.878.878,0,0,1-.039.331.8.8,0,0,1-.087.3.48.48,0,0,1-.182.233l-.56.421-.182.2-.126.17-.151.251-.11.207V616.19l.056.1a1.218,1.218,0,0,0,.166.3l.323.421.29.333.219.18a1.537,1.537,0,0,1,.385.323.922.922,0,0,1,.172.529v.2Z" transform="translate(-1167.957 -616.187)" fill="#227ecc"/><path d="M628.266,753.879H622.41l.434-.475a.9.9,0,0,0,.283-.637l-.1-.582-.064-.527-.039-.457a4.4,4.4,0,0,1,.426-1.925q.521-.931,1.009-.931h.134a1.012,1.012,0,0,1,.143-.462,1.444,1.444,0,0,1,.418-.47,2.691,2.691,0,0,1,.521-.333l.244-.08.252-.036h.1l.1-.162a.415.415,0,0,1,.347-.162h.1l.008-.062v-.223a.594.594,0,0,0-.243-.354,1.174,1.174,0,0,0-.315-.088h-.185l-.071-.026a1.339,1.339,0,0,1,.418-.736l.213-.134a.57.57,0,0,1,.229-.044.138.138,0,0,1,.11.044l-.008-.062v-.333l.048-.2a1.77,1.77,0,0,1,.308-.439,2.578,2.578,0,0,0,1.042-1.4Zm-2.959-12.216a1.207,1.207,0,0,1-.264.754.8.8,0,0,1-.659.341.921.921,0,0,1-.631-.323,1.127,1.127,0,0,1-.277-.736,1.313,1.313,0,0,1,.331-.762.855.855,0,0,1,.577-.3.9.9,0,0,1,.687.351A.982.982,0,0,1,625.307,741.662Zm.228,7.875-.244.08-.269.144a1.107,1.107,0,0,0-.513.968,2.111,2.111,0,0,0,.174.862l.213.287.143.054.157.026h1.578v-3.229h-.331a2.009,2.009,0,0,0-.592.144A.672.672,0,0,0,625.535,749.537Z" transform="translate(-622.41 -720.246)" fill="#227ecc"/><path d="M654.147,781.781v2.468a.293.293,0,0,0,.064.193.347.347,0,0,0,.21.1h.133l-.056.224a.406.406,0,0,1-.374.243.48.48,0,0,1-.19-.036,2.271,2.271,0,0,1-.678.862,1.936,1.936,0,0,1-1.27.395,1.966,1.966,0,0,1-1.231-.341,3.1,3.1,0,0,1-.6-.628.74.74,0,0,0-.529-.351c-.057,0-.162.075-.311.224a.649.649,0,0,1-.446.224.769.769,0,0,1-.442-.269.728.728,0,0,1,.016-.924.749.749,0,0,1,.593-.243,1.412,1.412,0,0,1,.9.367l.729.691a1.328,1.328,0,0,0,.878.377,1.048,1.048,0,0,0,.855-.385,1.226,1.226,0,0,0,.285-.844V777.4a.29.29,0,0,0-.156-.3,1.311,1.311,0,0,0-.315-.093h-.247a.91.91,0,0,1,.434-.834l.157-.044.277-.044v-.162a1.1,1.1,0,0,1,.12-.506,2.466,2.466,0,0,1,.665-.659l.313-.431a2.329,2.329,0,0,1,.213-.315v5.912h1.121l-.016,1.866h-1.106Z" transform="translate(-644.033 -748.148)" fill="#227ecc"/><path d="M707.345,753.043l-.031.1v.152a1.349,1.349,0,0,0,.084.457.325.325,0,0,0,.336.233.675.675,0,0,1-.165.395.589.589,0,0,1-.379.144.364.364,0,0,1-.182-.044l-.023.278a.634.634,0,0,1-.1.215.714.714,0,0,1-.6.233c0,.233-.179.4-.536.51a.681.681,0,0,0-.4.223c-.031-.072-.238-.179-.616-.321a.467.467,0,0,1-.378-.456l-.1.008a.453.453,0,0,1-.451-.3l-.1-.439a.483.483,0,0,1-.213.054c-.174,0-.344-.188-.513-.565a.346.346,0,0,0,.331-.17,2.793,2.793,0,0,0,.039-.628v-.072H681.99v-1.866h22.87v1.9a1.03,1.03,0,0,0,.12.431.416.416,0,0,0,.406.251.431.431,0,0,0,.429-.26,3.223,3.223,0,0,0,.08-.565v-1.758h4.68v-3.256a.854.854,0,0,0-.087-.485c-.074-.138-.238-.206-.49-.206a.487.487,0,0,0-.336.116.386.386,0,0,0-.13.3v2.03h-8.617v-.86a3.107,3.107,0,0,1,.836-1.409l.877-1,.7-.762a8.013,8.013,0,0,0,.9-1.032l.292-.269.238-.287a2.518,2.518,0,0,0,.536-1.534,2.333,2.333,0,0,0-.564-1.417,1.858,1.858,0,0,0-.916-.609l-.157-.036-.3-.036-.254.008-.159.026a1.317,1.317,0,0,0-1.081.655,4.233,4.233,0,0,0-.549,1.588l.031.537c.016-.156.144-.233.387-.233a.506.506,0,0,1,.221.036.414.414,0,0,1,.19.134.848.848,0,0,1,.2.619.638.638,0,0,1-.22.493.628.628,0,0,1-.455.2q-.425,0-.66-.565a3.509,3.509,0,0,1-.157-1.157v-.423l.031-.126.031-.224.031-.108.1-.3a3.07,3.07,0,0,1,.8-1.319,2.39,2.39,0,0,1,1.673-.619,2.743,2.743,0,0,1,2.051.852,3.242,3.242,0,0,1,.891,2.377,3.783,3.783,0,0,1-1.216,2.79q-.364.359-.9,1a5.621,5.621,0,0,0-.877,1.211h4.593v-.736l-.033-.108a.2.2,0,0,0-.21-.108l-.161.026a.961.961,0,0,1,.316-.457.819.819,0,0,1,.355-.072.267.267,0,0,0,.126-.018l.008-.036.031-.207a.537.537,0,0,1,.269-.413l.111-.072.157-.072.126-.036.134-.01a.49.49,0,0,1,.182.018l.2.026.11-.026.023-.044.071-.126a1.091,1.091,0,0,1,.465-.377l.782-.144a1.561,1.561,0,0,0,.829-.26v8.414h-4.614Z" transform="translate(-672.228 -719.41)" fill="#227ecc"/><path d="M875.412,619.294l.1-.018.141-.044.151.054a1.3,1.3,0,0,1,.339.537l.039.251-.182-.036a.87.87,0,0,0-.418.162.5.5,0,0,0-.19.395v30.142a.655.655,0,0,0,.023.188l.128.2a.469.469,0,0,0,.367.2.288.288,0,0,0,.167-.044,1.441,1.441,0,0,1-.284.772.592.592,0,0,1-.4.162l-.1-.008-.047-.008a.885.885,0,0,1-.039.331.806.806,0,0,1-.087.3.482.482,0,0,1-.182.233l-.56.421-.182.2-.126.17-.151.251-.11.206V616.9l.056.1a1.21,1.21,0,0,0,.166.3l.323.421.29.333.219.18a1.538,1.538,0,0,1,.385.323.922.922,0,0,1,.172.529v.2Z" transform="translate(-832.61 -616.78)" fill="#227ecc"/><path d="M901.291,758.453h-.868l.016.385a.448.448,0,0,0,.023.162l.039.036.087.036h.1l.079-.018a.575.575,0,0,1-.151.442l-.11.061-.19.042h-.079a.156.156,0,0,1-.087-.018l-.078-.026-.064.152-.118.261a.3.3,0,0,1-.087.116l-.126.144a1.179,1.179,0,0,1-.3.215l-.244.08-.229.036-.142-.008-.087-.018-.087.188a1,1,0,0,1-.877.431,3.632,3.632,0,0,0-.891.162,1.394,1.394,0,0,0-.5.224v-3.085H890.96l.387-.261.142-.1c.084-.054.131-.1.143-.126l.434-.485.252-.287.308-.269a1.98,1.98,0,0,1,.616-.3.245.245,0,0,0,.19-.09l-.039-.26a.763.763,0,0,1,.443-.664l.442-.126-.064.215v.269a1.239,1.239,0,0,0,.043.39.552.552,0,0,0,.216.229h3.385v1.65a.6.6,0,0,0,.157.4l.165.144a.336.336,0,0,0,.182.054.661.661,0,0,0,.339-.134.576.576,0,0,0,.182-.4v-3.166h-6.59v-6.018a2.749,2.749,0,0,0,.487.736,5.382,5.382,0,0,0,.549.555.807.807,0,0,1,.228.3l.078.385v.162l-.023.116a1.49,1.49,0,0,1,.56.08,1.339,1.339,0,0,1,.395.852l-.244-.026c-.357,0-.537.247-.537.744v.449H900.1a.351.351,0,0,1,.252.072c.057.036.087.125.087.269v2.772h.852Zm-7.434-11.446a.921.921,0,0,1-.275.744.816.816,0,0,1-.557.18.713.713,0,0,1-.585-.256.967.967,0,0,1-.208-.632,1,1,0,0,1,.259-.609.72.72,0,0,1,.549-.323.8.8,0,0,1,.542.264A.85.85,0,0,1,893.857,747.006Z" transform="translate(-846.958 -724.82)" fill="#227ecc"/><path d="M949.136,740.19v-9.561a.6.6,0,0,0-.039-.224.433.433,0,0,0-.166-.242,1.2,1.2,0,0,0-.3-.108l-.4-.036v-.233c.154-.515.364-.772.626-.772s.387-.033.393-.1a1.771,1.771,0,0,1,.395-1.122l1.082-1.293v15.556h-5.848l-.016-1.866Z" transform="translate(-892.027 -708.423)" fill="#227ecc"/><path d="M992,728.914l.1-.018.141-.044.151.054a1.3,1.3,0,0,1,.339.537l.039.251-.182-.036a.871.871,0,0,0-.418.162.5.5,0,0,0-.19.395V742.4a.655.655,0,0,0,.023.188l.128.2a.469.469,0,0,0,.367.2.288.288,0,0,0,.167-.044,1.441,1.441,0,0,1-.284.772.592.592,0,0,1-.4.162l-.1-.008-.047-.008a.884.884,0,0,1-.039.331.8.8,0,0,1-.087.3.483.483,0,0,1-.182.233l-.56.421-.182.2-.126.17-.151.251-.11.206V726.52l.056.1a1.215,1.215,0,0,0,.165.3l.323.421.29.333.219.18a1.539,1.539,0,0,1,.385.323.921.921,0,0,1,.172.529v.2Z" transform="translate(-930.097 -708.439)" fill="#227ecc"/><g transform="translate(1.096 22.878)"><path d="M630.94,756.822a1.206,1.206,0,0,1-.064.421,1.245,1.245,0,0,1-.19.341.815.815,0,0,1-.647.3.9.9,0,0,1-.664-.3,1.059,1.059,0,0,1-.275-.718,1.038,1.038,0,0,1,.3-.744.849.849,0,0,1,.6-.315,1.012,1.012,0,0,1,.872.6A1.124,1.124,0,0,1,630.94,756.822Z" transform="translate(-629.1 -755.8)" fill="#227ecc"/></g></g><path d="M1016.143,779.477v3a.509.509,0,0,0,.046.211.32.32,0,0,0,.2.157.294.294,0,0,0,.175-.08l-.016.108-.025.116a.484.484,0,0,1-.067.126l-.041.044a.64.64,0,0,1-.31.134.317.317,0,0,1-.192-.116l-.159.234-.134.19a3.529,3.529,0,0,1-.352.362,2.067,2.067,0,0,1-.444.252l-.285.1-.318.082-.159.036h-.469a4.023,4.023,0,0,1-.886-.108l-.251-.082-.351-.144-.167-.082-.159-.1-.352-.244a1.844,1.844,0,0,1-.628-.7l-.075-.208.059.021.159.059.962.55.56.193.218.046.2.018a1.939,1.939,0,0,0,1.029-.351,1.261,1.261,0,0,0,.711-1.041v-2.781h-3.808l.126-.17a.659.659,0,0,0,.315-.318,1.083,1.083,0,0,0,.1-.452l-.151-.747a3.122,3.122,0,0,1-.075-.611l.025-.433.033-.252.049-.26a3.253,3.253,0,0,1,.249-.809,2.986,2.986,0,0,1,.249-.459,1.874,1.874,0,0,1,.315-.36l.606-.369.075-.144.083-.152.192-.279a2.045,2.045,0,0,1,.488-.423l.134-.09.143-.072.134-.062.151-.044.252-.044h.346l.051-.09.059-.126a.483.483,0,0,1,.219-.3l.623-.3a2.339,2.339,0,0,0,.572-.646v6.144m-1.519.151v-3.1h-.214a.932.932,0,0,0-.523.315l-.188.5a2.394,2.394,0,0,0-.691.467.972.972,0,0,0-.282.726v.162a1.4,1.4,0,0,0,.351.709,1.211,1.211,0,0,0,.795.26h.593Z" transform="translate(-328.649 -481.883)" fill="#227ecc"/></g></svg>